<svg xmlns="http://www.w3.org/2000/svg"  viewBox="0 0 48 48" width="48px" height="48px"><path fill="#f26322" d="M17.172,12.571c-0.126-2.763,1.981-6.24,4.494-7.44c0.617-0.295,1.273-0.533,1.955-0.593 c1.777-0.157,3.455,0.917,4.627,2.252c1.244,1.417,2.09,4.175,2.42,6.025c-3.112-0.4-4.81-0.303-7.947-0.236 C21.361,12.607,18.52,12.398,17.172,12.571z M31.156,4.404c-1.949-1.942-4.726-2.886-7.493-2.88 c-1.012,0.002-2.026,0.151-2.984,0.473c-2.062,0.693-3.777,1.996-4.946,3.813s-1.931,4.792-2.134,6.936 c-2.919-0.208-5.832-0.023-8.358,0.23c-0.428,0.043-0.91,0.129-1.142,0.487c-0.129,0.199-0.152,0.445-0.171,0.68 c-0.313,3.965-0.21,7.962,0.309,11.906c0.149,1.136,0.333,2.267,0.452,3.406c0.524,5.001-0.547,8.291,0.584,13.364 c0.114,0.513,0.787,3.726,4.572,3.726c5.738,0,10.036,0.415,15.737-0.224c3.328-0.373,8.214,0.124,11.554,0.375 c0.97,0.073,1.993,0.039,2.844-0.429c0.98-0.539,1.585-1.588,1.844-2.667c0.259-1.079,0.217-2.203,0.191-3.311 c-0.185-7.825,0.474-15.67,1.963-23.357c0.206-1.064,0.309-2.415-0.628-2.976c-0.323-0.194-0.712-0.242-1.087-0.287 c-2.589-0.308-5.422-0.695-8.01-1.003C34.278,9.929,33.105,6.347,31.156,4.404z"/><path d="M26.501,4.719c-3.167-1.736-6.515,0.251-8.307,2.982c-0.938,1.429-1.573,3.145-1.522,4.87 c0.002,0.076,0.02,0.142,0.047,0.2c0.05,0.186,0.198,0.33,0.453,0.3c1.954-0.229,3.95,0.043,5.912-0.001 c2.545-0.057,5.052-0.074,7.583,0.244c0.351,0.044,0.533-0.353,0.482-0.633C30.587,9.611,29.394,6.304,26.501,4.719z M23.084,12.07 c-1.791,0.04-3.608-0.165-5.398-0.031c0.2-3.187,2.944-7.054,6.329-7.017c1.842,0.02,3.561,1.43,4.464,2.952 c0.772,1.301,1.241,2.794,1.559,4.28C27.721,12.012,25.418,12.018,23.084,12.07z"/><path d="M43.602,13.524c-0.788-0.466-1.922-0.424-2.804-0.534c-1.079-0.135-2.158-0.274-3.237-0.412 c-0.945-0.121-1.891-0.239-2.837-0.354c-0.072-2.074-0.639-4.161-1.62-5.981c-1.096-2.033-2.836-3.521-4.974-4.382 c-4.574-1.843-10.102-0.56-12.828,3.697c-1.248,1.949-1.862,4.37-2.141,6.669c-2.135-0.118-4.274-0.059-6.405,0.112 c-0.794,0.064-1.836,0.003-2.559,0.392c-0.836,0.45-0.777,1.437-0.83,2.262c-0.15,2.349-0.154,4.707-0.013,7.057 c0.14,2.324,0.505,4.609,0.779,6.918c0.48,4.038-0.232,8.102,0.325,12.131c0.298,2.159,0.844,4.45,3.023,5.457 c1.657,0.766,3.657,0.488,5.429,0.523c2.107,0.041,4.214,0.111,6.321,0.097c2.153-0.014,4.294-0.141,6.435-0.364 c1.887-0.196,3.797-0.138,5.687-0.038c1.873,0.099,3.74,0.269,5.61,0.409c1.889,0.141,3.699-0.219,4.738-1.952 c1.103-1.84,0.816-4.12,0.791-6.165c-0.029-2.324,0.017-4.648,0.136-6.969c0.243-4.72,0.793-9.423,1.649-14.071 C44.536,16.625,45.148,14.438,43.602,13.524z M43.525,16.637c-0.724,4.207-1.387,8.393-1.716,12.653 c-0.163,2.114-0.265,4.232-0.306,6.352c-0.041,2.141,0.112,4.296,0.017,6.433c-0.087,1.966-0.926,3.946-3.127,4.131 c-1.691,0.142-3.482-0.193-5.17-0.313c-1.811-0.129-3.628-0.231-5.445-0.2c-1.868,0.032-3.72,0.309-5.586,0.404 c-3.912,0.198-7.827-0.029-11.741-0.049c-1.4-0.007-2.73-0.16-3.707-1.268c-0.478-0.541-0.777-1.216-0.95-1.911 c-0.843-3.395-0.451-6.843-0.454-10.293C5.34,30.536,5.08,28.54,4.8,26.524c-0.301-2.169-0.482-4.353-0.534-6.542 c-0.025-1.055-0.021-2.11,0.013-3.165c0.017-0.527,0.041-1.054,0.072-1.581c0.025-0.423-0.069-1.331,0.288-1.597 c0.286-0.213,0.796-0.183,1.133-0.215c0.514-0.048,1.027-0.091,1.542-0.128c1.046-0.075,2.094-0.125,3.142-0.137 c1.048-0.012,2.096,0.016,3.142,0.087c0.289,0.019,0.474-0.246,0.5-0.5c0.203-2.018,0.712-4.119,1.637-5.932 c0.936-1.834,2.511-3.274,4.404-4.08c4.018-1.711,9.433-0.333,11.776,3.45c1.183,1.911,1.839,4.234,1.837,6.481 c0,0.276,0.185,0.426,0.395,0.466c0.035,0.012,0.065,0.03,0.105,0.034c2.031,0.242,4.059,0.512,6.088,0.767 c0.492,0.062,0.984,0.123,1.476,0.183c0.44,0.053,0.987,0.05,1.355,0.329C43.794,14.914,43.639,15.975,43.525,16.637z"/><path fill="#d6e5e5" d="M17.364,36.397c-0.477,0.54-0.803,1.362-1.134,2.003c1.636,1.532,3.743,2.571,5.96,2.905 s4.64,0.155,6.655-0.826c0.868-0.423,1.723-1.007,2.114-1.889c0.219-0.493,0.396-1.427,0.45-1.964 c0.185-1.867,0.193-3.553-0.955-5.037c-0.816-1.055-2.12-1.587-3.362-2.074c-1.294-0.507-2.588-1.015-3.881-1.522 c-0.872-0.342-1.78-0.709-2.395-1.417c-0.74-0.853-0.919-2.13-0.509-3.182c0.41-1.052,1.366-1.855,2.455-2.151 c1.091-0.297,2.259-0.112,3.336,0.231s2.1,0.839,3.177,1.184c0.091,0.029,0.188,0.057,0.279,0.031 c0.114-0.033,0.188-0.14,0.253-0.24c0.302-0.471,0.551-1.173,0.853-1.644c-1.234-0.935-2.667-1.908-4.127-2.421 c-0.623-0.219-1.266-0.433-1.926-0.433c-3.214,0-4.372,0.828-5.512,1.623s-2.051,1.978-2.316,3.342 c-0.115,0.59-0.108,1.199-0.023,1.794c0.344,2.413,2.054,4.583,4.32,5.481c1.392,0.552,2.957,0.653,4.262,1.388 c0.414,0.233,0.792,0.525,1.163,0.823c0.455,0.365,0.907,0.747,1.239,1.226c0.398,0.575,0.606,1.28,0.584,1.979 c-0.008,0.241-0.042,0.482-0.127,0.707c-0.092,0.243-0.24,0.462-0.408,0.66c-0.92,1.083-2.416,1.538-3.837,1.515 c-1.421-0.024-2.798-0.467-4.147-0.914C19.079,37.333,18.104,36.939,17.364,36.397z"/><path d="M31.323,32.008c-0.779-1.454-2.18-2.203-3.653-2.8c-1.785-0.723-3.704-1.282-5.412-2.173 c-0.838-0.437-1.478-1.082-1.631-2.044c-0.132-0.831,0.129-1.668,0.688-2.293c1.513-1.691,3.874-1.076,5.713-0.361 c0.527,0.205,1.048,0.424,1.579,0.617c0.352,0.128,0.762,0.329,1.139,0.19c0.72-0.266,0.984-1.491,1.345-2.089 c0.151-0.251,0.034-0.523-0.179-0.684c-1.436-1.082-2.942-2.061-4.665-2.615c-1.473-0.473-3.141-0.367-4.63,0.014 c-2.26,0.578-4.58,2.346-5.233,4.642c-0.82,2.882,0.89,6.077,3.305,7.624c1.457,0.934,3.167,1.045,4.744,1.663 c1.525,0.597,3.483,2.1,3.389,3.904c-0.102,1.962-2.807,2.482-4.344,2.359c-1.136-0.091-2.24-0.443-3.317-0.798 c-0.9-0.297-1.765-0.653-2.544-1.2c-0.026-0.018-0.051-0.021-0.076-0.033c-0.016-0.008-0.031-0.014-0.047-0.021 c-0.038-0.013-0.074-0.026-0.11-0.028c-0.034-0.004-0.067,0.001-0.102,0.006c-0.019,0.004-0.038,0.005-0.055,0.011 c-0.043,0.013-0.083,0.039-0.124,0.069c-0.008,0.006-0.016,0.012-0.024,0.019c-0.022,0.019-0.047,0.029-0.068,0.054 c-0.525,0.635-0.843,1.375-1.212,2.104c-0.097,0.193-0.091,0.451,0.078,0.606c2.553,2.346,5.947,3.45,9.396,3.162 c1.65-0.138,3.379-0.578,4.751-1.543c1.307-0.92,1.719-2.216,1.885-3.747C32.077,35.069,32.081,33.423,31.323,32.008z M30.764,37.49c-0.155,0.713-0.397,1.306-0.964,1.799c-0.69,0.6-1.596,0.98-2.463,1.238c-3.61,1.076-7.647,0.178-10.486-2.267 c0.195-0.412,0.396-0.825,0.648-1.203c1.333,0.828,2.943,1.328,4.447,1.667c1.535,0.346,3.155,0.402,4.619-0.252 c1.34-0.599,2.375-1.755,2.242-3.287c-0.151-1.734-1.501-2.925-2.872-3.827c-1.437-0.945-3.17-1.014-4.728-1.651 c-1.407-0.575-2.567-1.676-3.28-3.011c-0.803-1.504-1.055-3.404-0.192-4.936c0.608-1.08,1.626-1.866,2.697-2.457 c1.286-0.709,2.94-0.961,4.393-0.846c1.889,0.15,3.679,1.362,5.19,2.486c-0.102,0.2-0.199,0.402-0.297,0.605 c-0.07,0.145-0.143,0.382-0.255,0.499c-0.164,0.172,0.057,0.199-0.271,0.056c-0.854-0.371-1.76-0.701-2.641-1.005 c-1.544-0.534-3.283-0.778-4.788,0.006c-1.264,0.658-2.146,1.955-2.172,3.393c-0.028,1.553,0.902,2.772,2.25,3.449 c1.631,0.818,3.42,1.382,5.116,2.051c1.523,0.6,3.042,1.299,3.69,2.919C31.206,34.308,31.077,36.052,30.764,37.49z"/></svg>